<svg xmlns="http://www.w3.org/2000/svg" xmlns:xlink="http://www.w3.org/1999/xlink" width="220" height="210" viewBox="0 0 220 210">
  <defs>
    <clipPath id="clip-path">
      <rect id="矩形_11149" data-name="矩形 11149" width="220" height="210" transform="translate(78 171)" fill="#fff" stroke="#707070" stroke-width="1"/>
    </clipPath>
    <linearGradient id="linear-gradient" y1="0.5" x2="1" y2="0.5" gradientUnits="objectBoundingBox">
      <stop offset="0" stop-color="#fff"/>
      <stop offset="1" stop-color="#fff" stop-opacity="0.302"/>
    </linearGradient>
  </defs>
  <g id="蒙版组_20" data-name="蒙版组 20" transform="translate(-78 -171)" clip-path="url(#clip-path)">
    <g id="undraw_starry_window_ppm0" transform="translate(78 187.964)">
      <path id="路径_51718" data-name="路径 51718" d="M252.278,78.239v45.809H133.149V78.239a59.562,59.562,0,0,1,56.126-59.468q1.7-.1,3.438-.1c.657,0,1.314.009,1.963.033A59.367,59.367,0,0,1,234.83,36.119c.322.323.638.647.956.975a60,60,0,0,1,4.581,5.4,59.3,59.3,0,0,1,11.911,35.74Z" transform="translate(-32.278 -18.673)" fill="#3f3d56"/>
      <circle id="椭圆_910" data-name="椭圆 910" cx="15.696" cy="15.696" r="15.696" transform="translate(174.635 26.345)" fill="#5eb14e"/>
      <circle id="椭圆_911" data-name="椭圆 911" cx="1.801" cy="1.801" r="1.801" transform="translate(186.986 29.433)" opacity="0.2"/>
      <circle id="椭圆_912" data-name="椭圆 912" cx="1.801" cy="1.801" r="1.801" transform="translate(190.074 47.445)" opacity="0.2"/>
      <circle id="椭圆_913" data-name="椭圆 913" cx="1.287" cy="1.287" r="1.287" transform="translate(197.536 37.924)" opacity="0.2"/>
      <circle id="椭圆_914" data-name="椭圆 914" cx="4.117" cy="4.117" r="4.117" transform="translate(180.039 39.211)" opacity="0.2"/>
      <path id="路径_51719" data-name="路径 51719" d="M173.268,103.817l7.818-9.153,7.818-9.153,4.414-5.167c.244-.286-.133-.732-.377-.446l-7.819,9.153L177.3,98.2l-4.414,5.167c-.244.286.133.732.377.446Z" transform="translate(-32.278 -18.673)" opacity="0.8" fill="url(#linear-gradient)"/>
      <path id="路径_51720" data-name="路径 51720" d="M172.556,63.505l7.818-9.153,7.818-9.153,4.414-5.167c.244-.286-.133-.732-.377-.446l-7.819,9.153-7.818,9.153-4.414,5.167c-.244.286.133.732.377.446Z" transform="translate(-32.278 -18.673)" opacity="0.8" fill="url(#linear-gradient)"/>
      <path id="路径_51721" data-name="路径 51721" d="M194.678,18.707V124.047h-5.4V18.771q1.706-.1,3.439-.1C193.371,18.673,194.027,18.683,194.678,18.707Z" transform="translate(-32.278 -18.673)" fill="#fff"/>
      <path id="路径_51722" data-name="路径 51722" d="M240.367,42.5H145.058a59.742,59.742,0,0,1,4.581-5.4h86.146A59.741,59.741,0,0,1,240.367,42.5Z" transform="translate(-32.278 -18.673)" fill="#fff"/>
      <circle id="椭圆_915" data-name="椭圆 915" cx="1.237" cy="1.237" r="1.237" transform="translate(205.45 68.104)" fill="#e6e6e6"/>
      <circle id="椭圆_916" data-name="椭圆 916" cx="1.237" cy="1.237" r="1.237" transform="translate(125.538 57.907)" fill="#e6e6e6"/>
      <path id="路径_51723" data-name="路径 51723" d="M183.214,64.676l-.617.613-.613-.617-.411.409.613.617-.617.613.409.411.617-.613.613.617.412-.409-.613-.617.617-.613Z" fill="#e6e6e6"/>
      <path id="路径_51724" data-name="路径 51724" d="M114.921,77.007l-.617.613L113.69,77l-.411.409.613.617-.617.613.409.411.617-.613.613.617.412-.409-.613-.617.617-.613Z" fill="#e6e6e6"/>
      <path id="路径_51725" data-name="路径 51725" d="M176.337,84.121l-.617.613-.613-.617-.411.409.613.617-.617.613.409.411.617-.613.613.617.412-.409-.613-.617.617-.613Z" fill="#e6e6e6"/>
      <path id="路径_51726" data-name="路径 51726" d="M134.6,29.581l-.617.613-.613-.617-.411.409.613.617-.617.613.409.411.617-.613.613.617.412-.409-.613-.617.617-.613Z" fill="#e6e6e6"/>
      <rect id="矩形_11150" data-name="矩形 11150" width="143.724" height="0.474" transform="translate(0 167.367)" fill="#e6e6e6"/>
      <path id="路径_51727" data-name="路径 51727" d="M55.143,147.806c-3.142,4.441-3.972,29.72-4.157,37.822,0,.183-.009.356-.012.519H43.021c-.1-.173-.187-.344-.273-.519-4.714-9.3-2.1-20.462-1.961-21.026-.358,1.774,1.262,6.915,3.092,11.894C45,161.185,54.546,148.579,55.143,147.806Z" transform="translate(-32.278 -18.673)" fill="#e6e6e6"/>
      <path id="路径_51728" data-name="路径 51728" d="M104.187,125.047l-.9,3.9s.3,9-2.1,8.1-1.8-8.7-1.8-8.7l2.1-3.9Z" transform="translate(-32.278 -18.673)" fill="#ffb8b8"/>
      <circle id="椭圆_917" data-name="椭圆 917" cx="6.001" cy="6.001" r="6.001" transform="translate(52.555 51.614)" fill="#ffb8b8"/>
      <path id="路径_51729" data-name="路径 51729" d="M86.184,77.939l-.6,8.7,7.5.9s0-7.2.6-8.1S86.184,77.939,86.184,77.939Z" transform="translate(-32.278 -18.673)" fill="#ffb8b8"/>
      <path id="路径_51730" data-name="路径 51730" d="M102.819,89.27,93.1,85.164s-4.645-3.577-7.365-.927l-1.221,1.749s-10.8,4.21-10.8,7.511L77.933,110s-2.392,9.3,1.209,9.9l19.505,1.783a6.75,6.75,0,0,0,.293-7.5l.892-9.9Z" transform="translate(-32.278 -18.673)" fill="#e6e6e6"/>
      <path id="路径_51731" data-name="路径 51731" d="M96.218,89.576l6.6-.306s2.1.6,3.606,6.3,1.813,15,1.813,15l-3.586,16.806-4.5-.6,1.786-16.2-3.01-10.8Z" transform="translate(-32.278 -18.673)" fill="#e6e6e6"/>
      <path id="路径_51732" data-name="路径 51732" d="M77.316,91.393l-3.254,1.016S71.32,96.5,71.321,98.6s-1.184,18-1.184,18l7.813,12.9,2.395-6.3-4.808-8.1,3.892-9.905Z" transform="translate(-32.278 -18.673)" fill="#e6e6e6"/>
      <path id="路径_51733" data-name="路径 51733" d="M99.536,121l-21.573-1.9s-2.131,13.6-1.831,19,.6,13.8.6,13.8l-2.4,36.607,9.3-1.2L84.833,157l3.9-16.5,4.5,21,3,27,8.1-.9-2.7-32.706S104.037,125.5,99.536,121Z" transform="translate(-32.278 -18.673)" fill="#2f2e41"/>
      <path id="路径_51734" data-name="路径 51734" d="M102.537,186.108l2.7.9s5.7-1.5,4.2,2.4-5.7,3.3-5.7,3.3-5.1,3.9-7.2.9l1.2-6.3Z" transform="translate(-32.278 -18.673)" fill="#2f2e41"/>
      <path id="路径_51735" data-name="路径 51735" d="M80.633,186.108l2.7.9s5.7-1.5,4.2,2.4-5.7,3.3-5.7,3.3-5.1,3.9-7.2.9l1.2-6.3Z" transform="translate(-32.278 -18.673)" fill="#2f2e41"/>
      <path id="路径_51736" data-name="路径 51736" d="M86.184,81.539s-6.3-4.5-3-9.9c2.29-3.747,7.035-3.45,9.726-2.917a4.547,4.547,0,0,1,3.326,2.617c.45,1.05.45,2.1-1.35,2.1-3.6,0-1.8,2.7-1.8,2.7s-2.4.6-1.8,2.7S86.184,81.539,86.184,81.539Z" transform="translate(-32.278 -18.673)" fill="#2f2e41"/>
    </g>
  </g>
</svg>
