<svg xmlns="http://www.w3.org/2000/svg" xmlns:xlink="http://www.w3.org/1999/xlink" width="100" height="100" viewBox="0 0 100 100">
  <defs>
    <clipPath id="clip-path">
      <rect id="矩形_11156" data-name="矩形 11156" width="100" height="100" transform="translate(164 276)" fill="#fff" stroke="#707070" stroke-width="1"/>
    </clipPath>
  </defs>
  <g id="蒙版组_22" data-name="蒙版组 22" transform="translate(-164 -276)" clip-path="url(#clip-path)">
    <g id="undraw_Done_checking_re_6vyx" transform="translate(164 287.811)">
      <path id="路径_51760" data-name="路径 51760" d="M33.142,93.5l0,.03c-.006-.029-.011-.06-.016-.089-.009-.048-.017-.1-.025-.145a11.771,11.771,0,0,1,.481-5.638q.178-.531.4-1.042a11.549,11.549,0,0,1,2.42-3.537,4.982,4.982,0,0,1,1.123-.861c.061-.032.122-.063.184-.091a2.054,2.054,0,0,1,1.232-.178,1.68,1.68,0,0,1,.439.147c.049.024.1.05.141.077a2.434,2.434,0,0,1,1.065,1.63,3.8,3.8,0,0,1-.054,1.482q-.015.07-.032.139a7.725,7.725,0,0,1-.307.952A12.494,12.494,0,0,1,33.142,93.5Z" transform="translate(-23.913 -17.246)" fill="#f2f2f2"/>
      <path id="路径_51761" data-name="路径 51761" d="M39.372,82.112q-1.437,2.065-2.716,4.236t-2.386,4.43q-.621,1.265-1.187,2.556c-.042.1.1.178.142.082q1.012-2.3,2.2-4.527t2.533-4.347q.755-1.19,1.56-2.347c.06-.086-.082-.168-.142-.082Z" transform="translate(-23.913 -17.246)" fill="#fff"/>
      <path id="路径_51762" data-name="路径 51762" d="M40.4,85.3a4.487,4.487,0,0,1-2.95,1.71,4.265,4.265,0,0,1-.985.02c-.1-.01-.106.154,0,.163a4.65,4.65,0,0,0,3.372-1.065,4.428,4.428,0,0,0,.706-.746c.063-.084-.079-.165-.142-.082Z" transform="translate(-23.913 -17.246)" fill="#fff"/>
      <path id="路径_51763" data-name="路径 51763" d="M34.247,90.375a3.756,3.756,0,0,1-.414-.766,3.963,3.963,0,0,1-.255-1.946q.178-.531.4-1.042a.093.093,0,0,1,.008.092,3.587,3.587,0,0,0-.228.8,3.788,3.788,0,0,0,.627,2.785.066.066,0,0,1,.011.064.089.089,0,0,1-.153.017Z" transform="translate(-23.913 -17.246)" fill="#fff"/>
      <path id="路径_51764" data-name="路径 51764" d="M37.55,82.12a3.8,3.8,0,0,0,.168,2.363.082.082,0,0,0,.111.03.084.084,0,0,0,.03-.111,3.619,3.619,0,0,1-.152-2.239.082.082,0,0,0-.158-.043Z" transform="translate(-23.913 -17.246)" fill="#fff"/>
      <path id="路径_51765" data-name="路径 51765" d="M33.122,89.558l.01.029-.056-.072c-.031-.038-.06-.077-.089-.116a11.771,11.771,0,0,1-2.192-5.216q-.089-.552-.125-1.111a11.549,11.549,0,0,1,.5-4.256,4.982,4.982,0,0,1,.594-1.284c.039-.057.079-.112.121-.166a2.054,2.054,0,0,1,1.008-.73,1.68,1.68,0,0,1,.457-.073c.054,0,.108,0,.161,0a2.434,2.434,0,0,1,1.7.948,3.8,3.8,0,0,1,.641,1.337q.019.069.036.138a7.724,7.724,0,0,1,.171.986A12.493,12.493,0,0,1,33.122,89.558Z" transform="translate(-23.913 -17.246)" fill="#f2f2f2"/>
      <path id="路径_51766" data-name="路径 51766" d="M33.347,76.575q-.313,2.5-.437,5.012t-.056,5.031q.038,1.409.136,2.815c.007.1.171.112.163.006q-.174-2.51-.158-5.029t.224-5.026q.116-1.4.292-2.8c.013-.1-.15-.11-.163-.007Z" transform="translate(-23.913 -17.246)" fill="#fff"/>
      <path id="路径_51767" data-name="路径 51767" d="M35.735,78.922a4.487,4.487,0,0,1-1.818,2.884,4.265,4.265,0,0,1-.863.475c-.1.04-.022.185.074.145a4.65,4.65,0,0,0,2.491-2.51,4.428,4.428,0,0,0,.279-.988c.017-.1-.147-.109-.163-.007Z" transform="translate(-23.913 -17.246)" fill="#fff"/>
      <path id="路径_51768" data-name="路径 51768" d="M32.647,86.274a3.757,3.757,0,0,1-.723-.486,3.963,3.963,0,0,1-1.129-1.6q-.089-.552-.125-1.111a.093.093,0,0,1,.05.078,3.587,3.587,0,0,0,.167.811,3.788,3.788,0,0,0,1.849,2.175.066.066,0,0,1,.039.052.089.089,0,0,1-.127.086Z" transform="translate(-23.913 -17.246)" fill="#fff"/>
      <path id="路径_51769" data-name="路径 51769" d="M31.737,77.429a3.8,3.8,0,0,0,1.246,2.015.082.082,0,0,0,.113-.025.084.084,0,0,0-.025-.113A3.619,3.619,0,0,1,31.9,77.394a.082.082,0,0,0-.16.035Z" transform="translate(-23.913 -17.246)" fill="#fff"/>
      <path id="路径_51770" data-name="路径 51770" d="M33.193,93.525l.024.019-.086-.031c-.046-.016-.092-.033-.138-.05a11.771,11.771,0,0,1-4.656-3.214q-.373-.417-.7-.868a11.548,11.548,0,0,1-1.87-3.856,4.982,4.982,0,0,1-.191-1.4c0-.069.006-.137.013-.2a2.054,2.054,0,0,1,.456-1.158,1.68,1.68,0,0,1,.345-.308c.045-.031.09-.058.137-.084a2.434,2.434,0,0,1,1.943-.117,3.8,3.8,0,0,1,1.26.782q.053.047.1.1a7.726,7.726,0,0,1,.675.739A12.493,12.493,0,0,1,33.193,93.525Z" transform="translate(-23.913 -17.246)" fill="#f2f2f2"/>
      <path id="路径_51771" data-name="路径 51771" d="M26.39,82.464q1.081,2.273,2.331,4.459t2.663,4.269q.791,1.166,1.63,2.3c.062.084.2,0,.141-.082q-1.5-2.021-2.842-4.152T27.795,84.9q-.659-1.246-1.264-2.519c-.045-.095-.186-.012-.141.082Z" transform="translate(-23.913 -17.246)" fill="#fff"/>
      <path id="路径_51772" data-name="路径 51772" d="M29.666,83.155a4.487,4.487,0,0,1,.021,3.409,4.264,4.264,0,0,1-.471.865c-.061.086.081.168.141.082a4.65,4.65,0,0,0,.747-3.456,4.429,4.429,0,0,0-.3-.983c-.042-.1-.182-.013-.141.082Z" transform="translate(-23.913 -17.246)" fill="#fff"/>
      <path id="路径_51773" data-name="路径 51773" d="M31.024,91.013a3.756,3.756,0,0,1-.871-.02,3.963,3.963,0,0,1-1.816-.744q-.373-.418-.7-.868a.093.093,0,0,1,.084.039,3.587,3.587,0,0,0,.578.593,3.788,3.788,0,0,0,2.729.837.066.066,0,0,1,.061.022.089.089,0,0,1-.061.141Z" transform="translate(-23.913 -17.246)" fill="#fff"/>
      <path id="路径_51774" data-name="路径 51774" d="M25.494,84.05a3.8,3.8,0,0,0,2.135,1.026c.044.006.081-.042.082-.082a.084.084,0,0,0-.082-.082,3.619,3.619,0,0,1-2.019-.979c-.076-.073-.191.042-.116.116Z" transform="translate(-23.913 -17.246)" fill="#fff"/>
      <path id="路径_51775" data-name="路径 51775" d="M44.346,71.973a1.323,1.323,0,0,0,.195-2.02l.513-11.459-2.614.293L42.592,70a1.331,1.331,0,0,0,1.753,1.977Z" transform="translate(-23.913 -17.246)" fill="#ffb8b8"/>
      <path id="路径_51776" data-name="路径 51776" d="M25.2,74.124l1.488.261,1.47-5.613-1.949-.386Z" fill="#ffb8b8"/>
      <path id="路径_51777" data-name="路径 51777" d="M48.675,91.287h4.747v1.834H50.509a1.834,1.834,0,0,1-1.834-1.834h0Z" transform="matrix(-0.985, -0.173, 0.173, -0.985, 61.447, 174.606)" fill="#2f2e41"/>
      <path id="路径_51778" data-name="路径 51778" d="M21.117,74.868h1.51l.718-5.825H21.117Z" fill="#ffb8b8"/>
      <path id="路径_51779" data-name="路径 51779" d="M44.707,91.683h4.747v1.834H46.541a1.834,1.834,0,0,1-1.834-1.834h0Z" transform="translate(70.252 167.952) rotate(179.997)" fill="#2f2e41"/>
      <path id="路径_51780" data-name="路径 51780" d="M51.455,90.52a.586.586,0,0,1-.071,0l-1.778-.146a.6.6,0,0,1-.523-.7l1.641-9.2-1.109-5.848a.2.2,0,0,0-.4.02l-1.387,15.6a.607.607,0,0,1-.642.547l-1.675-.062a.6.6,0,0,1-.559-.57l-.113-18.7,8.683-1.085.607,9.367,0,.01L52.039,90.06a.6.6,0,0,1-.584.459Z" transform="translate(-23.913 -17.246)" fill="#2f2e41"/>
      <circle id="椭圆_919" data-name="椭圆 919" cx="3.026" cy="3.026" r="3.026" transform="translate(20.769 27.771)" fill="#ffb8b8"/>
      <path id="路径_51781" data-name="路径 51781" d="M50.559,72.827a2.477,2.477,0,0,1-1.337-.383,4.7,4.7,0,0,0-3.992-.253.6.6,0,0,1-.52-.059.593.593,0,0,1-.274-.438l-1.567-14a4.9,4.9,0,0,1,3.359-5.243h0q.124-.039.253-.074a4.874,4.874,0,0,1,4.062.7A4.953,4.953,0,0,1,52.657,56.7l1.319,14.091a.592.592,0,0,1-.188.494A5.38,5.38,0,0,1,50.559,72.827Z" transform="translate(-23.913 -17.246)" fill="#5eb14e"/>
      <path id="路径_51782" data-name="路径 51782" d="M45.787,60.7l-3.536-.389a.7.7,0,0,1-.6-.879l.9-3.43a1.956,1.956,0,1,1,3.887.439l.134,3.532a.7.7,0,0,1-.781.727Z" transform="translate(-23.913 -17.246)" fill="#5eb14e"/>
      <path id="路径_51783" data-name="路径 51783" d="M53.963,71.482a1.323,1.323,0,0,0-.05-2.029l-.871-11.437-2.561.576,1.5,11.138a1.331,1.331,0,0,0,1.979,1.751Z" transform="translate(-23.913 -17.246)" fill="#ffb8b8"/>
      <path id="路径_51784" data-name="路径 51784" d="M49.5,59.979a.7.7,0,0,1-.224-.542l.134-3.532a1.956,1.956,0,1,1,3.887-.439l.9,3.43a.7.7,0,0,1-.6.879l-3.536.389a.7.7,0,0,1-.557-.185Z" transform="translate(-23.913 -17.246)" fill="#5eb14e"/>
      <path id="路径_51785" data-name="路径 51785" d="M47.529,51.183a.7.7,0,0,1-.16-.019l-.015,0c-2.66-.407-3.248-1.948-3.377-2.591a1.606,1.606,0,0,1,.362-1.559,1.918,1.918,0,0,1,.09-1.56,2.523,2.523,0,0,1,1.49-1.067,1.847,1.847,0,0,1,1.8-.109c1.444-.534,2-.09,2.1.01.645.116,1.039.365,1.169.741.245.706-.53,1.584-.564,1.621l-.017.019-1.156.055a.783.783,0,0,0-.737.9h0a3.648,3.648,0,0,0,.118.413c.2.617.345,1.144.154,1.344a.309.309,0,0,1-.323.056c-.181-.048-.3-.038-.364.03-.095.106-.066.374.082.755a.707.707,0,0,1-.129.72.686.686,0,0,1-.521.242Z" transform="translate(-23.913 -17.246)" fill="#2f2e41"/>
      <path id="路径_51786" data-name="路径 51786" d="M83.261,60.855H68.355a2.1,2.1,0,0,1-2.094-2.094v-22.4a2.1,2.1,0,0,1,2.094-2.094H83.261a2.1,2.1,0,0,1,2.094,2.094v22.4a2.1,2.1,0,0,1-2.094,2.094ZM68.355,34.514a1.85,1.85,0,0,0-1.848,1.848v22.4a1.85,1.85,0,0,0,1.848,1.848H83.261a1.85,1.85,0,0,0,1.848-1.848v-22.4a1.85,1.85,0,0,0-1.848-1.848Z" transform="translate(-23.913 -17.246)" fill="#3f3d56"/>
      <path id="路径_51791" data-name="路径 51791" d="M119.6,73.421H104.7a2.1,2.1,0,0,1-2.094-2.094v-22.4a2.1,2.1,0,0,1,2.094-2.094H119.6a2.1,2.1,0,0,1,2.094,2.094v22.4A2.1,2.1,0,0,1,119.6,73.421ZM104.7,47.079a1.85,1.85,0,0,0-1.848,1.848v22.4a1.85,1.85,0,0,0,1.848,1.848H119.6a1.85,1.85,0,0,0,1.848-1.848v-22.4a1.85,1.85,0,0,0-1.848-1.848Z" transform="translate(-23.913 -17.246)" fill="#3f3d56"/>
      <path id="路径_51792" data-name="路径 51792" d="M116.584,52.366h-8.87a.986.986,0,1,1,0-1.971h8.87a.986.986,0,0,1,0,1.971Z" transform="translate(-23.913 -17.246)" fill="#ccc"/>
      <path id="路径_51793" data-name="路径 51793" d="M116.584,56.061h-8.87a.986.986,0,1,1,0-1.971h8.87a.986.986,0,0,1,0,1.971Z" transform="translate(-23.913 -17.246)" fill="#ccc"/>
      <path id="路径_51794" data-name="路径 51794" d="M117.323,65.485H106.975a1.048,1.048,0,0,1-1.047-1.047V59.511a1.048,1.048,0,0,1,1.047-1.047h10.348a1.048,1.048,0,0,1,1.047,1.047v4.928A1.048,1.048,0,0,1,117.323,65.485Z" transform="translate(-23.913 -17.246)" fill="#e6e6e6"/>
      <path id="路径_51795" data-name="路径 51795" d="M116.584,69.859h-8.87a.986.986,0,1,1,0-1.971h8.87a.986.986,0,0,1,0,1.971Z" transform="translate(-23.913 -17.246)" fill="#ccc"/>
      <path id="路径_51796" data-name="路径 51796" d="M110.486,37.819H95.58a2.1,2.1,0,0,1-2.094-2.094v-13.9a2.1,2.1,0,0,1,2.094-2.094h14.906a2.1,2.1,0,0,1,2.094,2.094v13.9a2.1,2.1,0,0,1-2.094,2.094ZM95.58,19.977a1.85,1.85,0,0,0-1.848,1.848v13.9a1.85,1.85,0,0,0,1.848,1.848h14.906a1.85,1.85,0,0,0,1.848-1.848v-13.9a1.85,1.85,0,0,0-1.848-1.848Z" transform="translate(-23.913 -17.246)" fill="#3f3d56"/>
      <path id="路径_51797" data-name="路径 51797" d="M107.468,33.456H98.6a.986.986,0,0,1,0-1.971h8.87a.986.986,0,0,1,0,1.971Z" transform="translate(-23.913 -17.246)" fill="#ccc"/>
      <path id="路径_51798" data-name="路径 51798" d="M107.468,29.761H98.6a.986.986,0,0,1,0-1.971h8.87a.986.986,0,0,1,0,1.971Z" transform="translate(-23.913 -17.246)" fill="#ccc"/>
      <path id="路径_51799" data-name="路径 51799" d="M107.468,26.065H98.6a.986.986,0,0,1,0-1.971h8.87a.986.986,0,0,1,0,1.971Z" transform="translate(-23.913 -17.246)" fill="#ccc"/>
      <circle id="椭圆_920" data-name="椭圆 920" cx="2.833" cy="2.833" r="2.833" transform="translate(57.377 14.783)" fill="#5eb14e"/>
      <path id="路径_51800" data-name="路径 51800" d="M83.842,35.943a.294.294,0,0,1-.177-.059l0,0L83,35.372a.3.3,0,1,1,.36-.47l.431.331L84.807,33.9a.3.3,0,0,1,.415-.055l-.006.009.007-.008a.3.3,0,0,1,.055.415l-1.2,1.563A.3.3,0,0,1,83.842,35.943Z" transform="translate(-23.913 -17.246)" fill="#fff"/>
      <path id="路径_51803" data-name="路径 51803" d="M70.972,93.624H24.037a.123.123,0,0,1,0-.246H70.972a.123.123,0,0,1,0,.246Z" transform="translate(-23.913 -17.246)" fill="#3f3d56"/>
    </g>
  </g>
</svg>
