<svg xmlns="http://www.w3.org/2000/svg" xmlns:xlink="http://www.w3.org/1999/xlink" width="220" height="210" viewBox="0 0 220 210">
  <defs>
    <clipPath id="clip-path">
      <rect id="矩形_11148" data-name="矩形 11148" width="220" height="210" transform="translate(12.092 145.2)" fill="#fff" stroke="#707070" stroke-width="1"/>
    </clipPath>
  </defs>
  <g id="蒙版组_19" data-name="蒙版组 19" transform="translate(-12.092 -145.2)" clip-path="url(#clip-path)">
    <g id="undraw_Messages_re_qy9x" transform="translate(12 161.323)">
      <path id="路径_51683" data-name="路径 51683" d="M284.752,75.029h-.957V48.311A15.321,15.321,0,0,0,268.62,32.847H213.075A15.321,15.321,0,0,0,197.9,48.311V194.89a15.321,15.321,0,0,0,15.174,15.464h55.546a15.321,15.321,0,0,0,15.174-15.464V94.048h.957Z" transform="translate(-107.966 -32.847)" fill="#e6e6e6"/>
      <path id="路径_51684" data-name="路径 51684" d="M283.091,50.724V197.088a11.442,11.442,0,0,1-11.332,11.549H215.946a11.442,11.442,0,0,1-11.332-11.549V50.724a11.442,11.442,0,0,1,11.332-11.549h6.771a5.579,5.579,0,0,0,.519,5.131,5.36,5.36,0,0,0,4.467,2.427h31.821a5.36,5.36,0,0,0,4.467-2.427,5.579,5.579,0,0,0,.519-5.131h7.249a11.442,11.442,0,0,1,11.332,11.549Z" transform="translate(-110.492 -35.153)" fill="#fff"/>
      <path id="路径_51685" data-name="路径 51685" d="M222.932,60.531a7.806,7.806,0,0,0,0,15.61h0a7.806,7.806,0,0,0,0-15.61Z" transform="translate(-114.503 -42.933)" fill="#e6e6e6"/>
      <path id="路径_51686" data-name="路径 51686" d="M291.291,80.932H251.083a1.952,1.952,0,0,1,0-3.9h40.208a1.952,1.952,0,0,1,0,3.9Z" transform="translate(-127.256 -48.944)" fill="#e6e6e6"/>
      <path id="路径_51687" data-name="路径 51687" d="M263.768,67.887H251.083a1.952,1.952,0,0,1,0-3.9h12.685a1.952,1.952,0,0,1,0,3.9Z" transform="translate(-127.256 -44.191)" fill="#e6e6e6"/>
      <path id="路径_51688" data-name="路径 51688" d="M222.932,111.946a7.806,7.806,0,0,0,0,15.61h0a7.806,7.806,0,0,0,0-15.61Z" transform="translate(-114.503 -61.665)" fill="#e6e6e6"/>
      <path id="路径_51689" data-name="路径 51689" d="M291.291,132.348H251.083a1.952,1.952,0,0,1,0-3.9h40.208a1.952,1.952,0,0,1,0,3.9Z" transform="translate(-127.256 -67.677)" fill="#e6e6e6"/>
      <path id="路径_51690" data-name="路径 51690" d="M263.768,119.3H251.083a1.952,1.952,0,0,1,0-3.9h12.685a1.952,1.952,0,0,1,0,3.9Z" transform="translate(-127.256 -62.924)" fill="#e6e6e6"/>
      <path id="路径_51691" data-name="路径 51691" d="M222.932,214.777a7.806,7.806,0,0,0,0,15.61h0a7.806,7.806,0,0,0,0-15.61Z" transform="translate(-114.503 -99.13)" fill="#e6e6e6"/>
      <path id="路径_51692" data-name="路径 51692" d="M291.291,235.178H251.083a1.952,1.952,0,0,1,0-3.9h40.208a1.952,1.952,0,0,1,0,3.9Z" transform="translate(-127.256 -105.141)" fill="#e6e6e6"/>
      <path id="路径_51693" data-name="路径 51693" d="M263.768,222.132H251.083a1.952,1.952,0,0,1,0-3.9h12.685a1.952,1.952,0,0,1,0,3.9Z" transform="translate(-127.256 -100.388)" fill="#e6e6e6"/>
      <path id="路径_51694" data-name="路径 51694" d="M222.932,266.192a7.806,7.806,0,0,0,0,15.61h0a7.806,7.806,0,0,0,0-15.61Z" transform="translate(-114.503 -117.862)" fill="#e6e6e6"/>
      <path id="路径_51695" data-name="路径 51695" d="M291.291,286.593H251.083a1.952,1.952,0,0,1,0-3.9h40.208a1.952,1.952,0,0,1,0,3.9Z" transform="translate(-127.256 -123.873)" fill="#e6e6e6"/>
      <path id="路径_51696" data-name="路径 51696" d="M263.768,273.548H251.083a1.952,1.952,0,0,1,0-3.9h12.685a1.952,1.952,0,0,1,0,3.9Z" transform="translate(-127.256 -119.12)" fill="#e6e6e6"/>
      <path id="路径_51697" data-name="路径 51697" d="M283.467,183.237H191.086a3.992,3.992,0,0,1-3.949-4.024V148.969a3.992,3.992,0,0,1,3.949-4.024h92.382a3.992,3.992,0,0,1,3.949,4.024v30.244A3.992,3.992,0,0,1,283.467,183.237Z" transform="translate(-103.916 -73.688)" fill="#fff"/>
      <path id="路径_51698" data-name="路径 51698" d="M205.055,179.825A11.155,11.155,0,1,1,216,168.672,11.05,11.05,0,0,1,205.055,179.825Zm0-21.818a10.667,10.667,0,1,0,10.465,10.665,10.566,10.566,0,0,0-10.465-10.665Z" transform="translate(-106.54 -78.269)" fill="#3f3d56"/>
      <path id="路径_51699" data-name="路径 51699" d="M300.744,186.418h-56.2a2.728,2.728,0,0,1,0-5.454h56.2a2.728,2.728,0,0,1,0,5.454Z" transform="translate(-124.51 -86.811)" fill="#5eb14e"/>
      <path id="路径_51700" data-name="路径 51700" d="M262.275,168.184H244.546a2.728,2.728,0,0,1,0-5.454h17.729a2.728,2.728,0,0,1,0,5.454Z" transform="translate(-124.51 -80.167)" fill="#5eb14e"/>
      <path id="路径_51701" data-name="路径 51701" d="M283.467,183.237H191.086a3.992,3.992,0,0,1-3.949-4.024V148.969a3.992,3.992,0,0,1,3.949-4.024h92.382a3.992,3.992,0,0,1,3.949,4.024v30.244A3.992,3.992,0,0,1,283.467,183.237Zm-92.382-38.049a3.75,3.75,0,0,0-3.71,3.78v30.244a3.75,3.75,0,0,0,3.71,3.781h92.382a3.75,3.75,0,0,0,3.71-3.781V148.969a3.75,3.75,0,0,0-3.71-3.78Z" transform="translate(-103.916 -73.688)" fill="#3f3d56"/>
      <ellipse id="椭圆_905" data-name="椭圆 905" cx="4.465" cy="4.55" rx="4.465" ry="4.55" transform="translate(93.856 86.731)" fill="#2f2e41"/>
      <path id="路径_51716" data-name="路径 51716" d="M1.868-.013C2.9-.023,3.727.6,3.72,1.368S2.872,2.774,1.842,2.784-.017,2.176-.01,1.4.838,0,1.868-.013Z" transform="translate(91.566 88.161) rotate(-45)" fill="#2f2e41"/>
      <path id="路径_51717" data-name="路径 51717" d="M1.411-.007c.778-.005,1.4.82,1.4,1.843A1.7,1.7,0,0,1,1.385,3.7c-.778.005-1.4-.82-1.4-1.843A1.7,1.7,0,0,1,1.411-.007Z" transform="translate(99.029 87.205) rotate(-66.869)" fill="#2f2e41"/>
      <ellipse id="椭圆_908" data-name="椭圆 908" cx="3.789" cy="3.861" rx="3.789" ry="3.861" transform="translate(94.674 88.505)" fill="#ffb8b8"/>
      <path id="路径_51702" data-name="路径 51702" d="M205.19,173.147a5.086,5.086,0,0,0,2.945.928,3.126,3.126,0,0,1-1.252.525,10.2,10.2,0,0,0,4.245.024,2.713,2.713,0,0,0,.889-.311,1.144,1.144,0,0,0,.548-.748,1.551,1.551,0,0,0-.752-1.367,5.466,5.466,0,0,0-4.663-.95,2.542,2.542,0,0,0-1.381.8,1.3,1.3,0,0,0-.116,1.522Z" transform="translate(-110.709 -83.21)" fill="#2f2e41"/>
      <path id="路径_51703" data-name="路径 51703" d="M121.845,218.66a2.663,2.663,0,0,1,.3-2.2,2.566,2.566,0,0,1,1.844-1.177l12.286-14.63,2.865,3.066L126.9,217.751a2.624,2.624,0,0,1-2.132,2.743,2.582,2.582,0,0,1-2.924-1.834Z" transform="translate(-79.307 -93.986)" fill="#a0616a"/>
      <path id="路径_51704" data-name="路径 51704" d="M138.634,200.79a1.109,1.109,0,0,1,.306-.859l3.8-3.922a2.955,2.955,0,0,1,4.178-.675,3.086,3.086,0,0,1,.662,4.258l-2.524,4.892a1.08,1.08,0,0,1-.71.558,1.061,1.061,0,0,1-.879-.183l-4.392-3.271A1.1,1.1,0,0,1,138.634,200.79Z" transform="translate(-85.666 -91.834)" fill="#5eb14e"/>
      <ellipse id="椭圆_909" data-name="椭圆 909" cx="5.878" cy="5.99" rx="5.878" ry="5.99" transform="translate(56.002 87.998)" fill="#a0616a"/>
      <path id="路径_51705" data-name="路径 51705" d="M146.38,212.018a1.09,1.09,0,0,1-.423-.747,97.525,97.525,0,0,0-1.772-10.3,6.486,6.486,0,0,1,3.961-7.494,6.289,6.289,0,0,1,7.813,3.009c2.312,4.421,2.488,10.492,2.457,12.9a1.089,1.089,0,0,1-.9,1.065L147.2,212.222a1.07,1.07,0,0,1-.182.015A1.055,1.055,0,0,1,146.38,212.018Z" transform="translate(-87.696 -91.222)" fill="#2f2e41"/>
      <path id="路径_51706" data-name="路径 51706" d="M174.149,191.06a2.612,2.612,0,0,0-.057.4L163.81,197.5l-2.5-1.466-2.664,3.554,4.176,3.034a1.886,1.886,0,0,0,2.3-.057l10.6-8.523a2.481,2.481,0,0,0,2.767-.72,2.6,2.6,0,0,0,.318-2.892,2.5,2.5,0,0,0-2.542-1.327,2.53,2.53,0,0,0-2.117,1.954Z" transform="translate(-93.197 -89.769)" fill="#a0616a"/>
      <path id="路径_51707" data-name="路径 51707" d="M160.42,199.939l-3.323,4.389a1.064,1.064,0,0,1-1.628.091l-3.762-3.981a3.087,3.087,0,0,1-.529-4.277,2.954,2.954,0,0,1,4.2-.539l4.718,2.688a1.1,1.1,0,0,1,.529.738,1.114,1.114,0,0,1-.2.89Z" transform="translate(-90.151 -91.918)" fill="#5eb14e"/>
      <path id="路径_51708" data-name="路径 51708" d="M120.961,268.285h2.934l.691-11.5-3.625-.037Z" transform="translate(-45.511 -93.543)" fill="#a0616a"/>
      <path id="路径_51709" data-name="路径 51709" d="M173.478,306.207h5.779a3.718,3.718,0,0,1,3.682,3.753v.122h-9.461Z" transform="translate(-98.777 -132.441)" fill="#2f2e41"/>
      <path id="路径_51710" data-name="路径 51710" d="M76.068,268.285H79l1.4-11.534h-4.33Z" transform="translate(-28.62 -93.543)" fill="#a0616a"/>
      <path id="路径_51711" data-name="路径 51711" d="M128.586,306.207h5.779a3.718,3.718,0,0,1,3.682,3.753v.122h-9.461Z" transform="translate(-81.887 -132.441)" fill="#2f2e41"/>
      <path id="路径_51712" data-name="路径 51712" d="M132.151,269.29l-3.641-.484a1.075,1.075,0,0,1-.756-.478,1.115,1.115,0,0,1-.145-.895l5.312-26.6a62.948,62.948,0,0,0,1.094-7.827,12.449,12.449,0,0,1,2.817-7.428,31.274,31.274,0,0,0,2.327-2.931l1.608-2.269,10.711-1.737.007.135a64.2,64.2,0,0,0,6.494,24.921,28.57,28.57,0,0,1,2.9,11.213l.607,12.061a1.111,1.111,0,0,1-.312.83,1.054,1.054,0,0,1-.813.323l-3.481-.161a1.085,1.085,0,0,1-1-.856l-2.906-13.215a.869.869,0,0,0-.147-.326L143.7,241.174a.593.593,0,0,0-.57-.237.6.6,0,0,0-.473.4l-9.351,27.226a1.084,1.084,0,0,1-1.018.735,1.037,1.037,0,0,1-.138-.009Z" transform="translate(-81.505 -100.538)" fill="#2f2e41"/>
      <path id="路径_51713" data-name="路径 51713" d="M131.226,169.881a26.994,26.994,0,0,0,1.03-4.426,3.034,3.034,0,0,0-.776-2.42c-1.17-1.13-3.157-.592-4.381.477a10.094,10.094,0,0,0-2.983,6.268,66.56,66.56,0,0,0-.267,7.11,14.541,14.541,0,0,1-1.6,6.854,6.425,6.425,0,0,1-5.712,3.436,3.982,3.982,0,0,1-2.516-1.087,3.007,3.007,0,0,1-.876-2.582,5.875,5.875,0,0,0,1.185,6.806,6.975,6.975,0,0,0,6.823,1.457,9.484,9.484,0,0,0,5.388-4.741,14.788,14.788,0,0,0,1.5-7.2,30,30,0,0,1-.049-5.7c.316-1.878,1.469-3.785,3.288-4.227Z" transform="translate(-75.845 -80.05)" fill="#2f2e41"/>
      <path id="路径_51714" data-name="路径 51714" d="M150.049,174.125a2.322,2.322,0,0,0,2.563,1.528,3.028,3.028,0,0,0,2.269-2.125,4.45,4.45,0,0,0-.336-3.207,4.933,4.933,0,0,0-2.8-2.546,3.962,3.962,0,0,0-3.659.6,1.36,1.36,0,0,0-.94-1,2.525,2.525,0,0,0-1.411.021,5.822,5.822,0,0,0-3.236,2.4,9.752,9.752,0,0,0-1.467,3.853,8.5,8.5,0,0,0,.91,6.071,4.537,4.537,0,0,0,5.356,1.947,2.579,2.579,0,0,0-.484-1.764,5.418,5.418,0,0,1-.83-1.662,1.351,1.351,0,0,1,.7-1.562c.5-.171,1.025.106,1.547.139a1.685,1.685,0,0,0,1.518-.767,1.756,1.756,0,0,0,.109-1.723Z" transform="translate(-86.5 -81.825)" fill="#2f2e41"/>
      <path id="路径_51715" data-name="路径 51715" d="M273.662,312.2H53.957a.244.244,0,0,1,0-.488H273.662a.244.244,0,0,1,0,.488Z" transform="translate(-53.717 -134.447)" fill="#ccc"/>
    </g>
  </g>
</svg>
