<svg xmlns="http://www.w3.org/2000/svg" xmlns:xlink="http://www.w3.org/1999/xlink" width="100" height="100" viewBox="0 0 100 100">
  <defs>
    <clipPath id="clip-path">
      <rect id="矩形_11155" data-name="矩形 11155" width="100" height="100" transform="translate(86 271.112)" fill="#fff" stroke="#707070" stroke-width="1"/>
    </clipPath>
  </defs>
  <g id="蒙版组_21" data-name="蒙版组 21" transform="translate(-86 -271.112)" clip-path="url(#clip-path)">
    <g id="undraw_Add_files_re_v09g" transform="translate(92.731 270.961)">
      <path id="路径_51737" data-name="路径 51737" d="M88.417,21.248l-2.8.936L51.135,33.721l-2.8.936c-2.829.951-4.53,4.693-3.8,8.364l12.137,61.054c.733,3.67,3.617,5.877,6.447,4.935l.007,0L103.19,95.6l.007,0c2.829-.951,4.53-4.692,3.8-8.364L94.864,26.183C94.131,22.513,91.247,20.306,88.417,21.248Z" transform="translate(-44.365 -21.031)" fill="#f2f2f2"/>
      <path id="路径_51738" data-name="路径 51738" d="M90.215,24.126,86.9,25.235,53.449,36.426l-3.315,1.109c-2.014.677-3.226,3.342-2.709,5.956l12.137,61.054c.522,2.613,2.576,4.185,4.591,3.514l.007,0,40.066-13.4.007,0c2.014-.677,3.226-3.342,2.709-5.956L94.806,27.641C94.284,25.027,92.23,23.455,90.215,24.126Z" transform="translate(-45.782 -21.995)" fill="#fff"/>
      <path id="路径_51739" data-name="路径 51739" d="M105.415,52.518,85.147,59.3c-.471.158-.952-.21-1.074-.822a1.2,1.2,0,0,1,.633-1.393L104.975,50.3c.471-.158.952.21,1.074.822a1.2,1.2,0,0,1-.633,1.393Z" transform="translate(-63.486 -30.616)" fill="#f2f2f2"/>
      <path id="路径_51740" data-name="路径 51740" d="M110.37,56.326,86.581,64.284c-.471.158-.952-.21-1.074-.822a1.2,1.2,0,0,1,.633-1.393l23.789-7.959c.471-.158.952.21,1.074.822a1.2,1.2,0,0,1-.633,1.393Z" transform="translate(-64.177 -31.864)" fill="#f2f2f2"/>
      <path id="路径_51741" data-name="路径 51741" d="M111.841,77.435,91.572,84.216c-.471.158-.952-.21-1.074-.822A1.2,1.2,0,0,1,91.132,82L111.4,75.221c.471-.158.952.21,1.074.822A1.2,1.2,0,0,1,111.841,77.435Z" transform="translate(-66.582 -38.785)" fill="#f2f2f2"/>
      <path id="路径_51742" data-name="路径 51742" d="M116.8,81.243,93.006,89.2c-.471.158-.952-.21-1.074-.822a1.2,1.2,0,0,1,.633-1.393l23.789-7.959c.471-.158.952.21,1.074.822a1.2,1.2,0,0,1-.633,1.393Z" transform="translate(-67.273 -40.033)" fill="#f2f2f2"/>
      <path id="路径_51743" data-name="路径 51743" d="M118.267,102.352,98,109.133c-.471.158-.952-.21-1.074-.822a1.2,1.2,0,0,1,.633-1.393l20.268-6.781c.471-.158.952.21,1.074.822a1.2,1.2,0,0,1-.633,1.393Z" transform="translate(-69.679 -46.953)" fill="#f2f2f2"/>
      <path id="路径_51744" data-name="路径 51744" d="M123.221,106.16l-23.789,7.959c-.471.158-.952-.21-1.074-.822a1.2,1.2,0,0,1,.633-1.393l23.789-7.959c.471-.158.952.21,1.074.822a1.2,1.2,0,0,1-.633,1.393Z" transform="translate(-70.37 -48.202)" fill="#f2f2f2"/>
      <path id="路径_51745" data-name="路径 51745" d="M70.8,69.482l-7.173,2.4c-.226.075-.456-.1-.515-.394L61.465,63.2a.578.578,0,0,1,.3-.668l7.173-2.4c.226-.075.456.1.515.394L71.1,68.814A.578.578,0,0,1,70.8,69.482Z" transform="translate(-52.599 -33.846)" fill="#e6e6e6"/>
      <path id="路径_51746" data-name="路径 51746" d="M77.225,94.4l-7.173,2.4c-.226.075-.456-.1-.515-.394l-1.647-8.283a.578.578,0,0,1,.3-.668l7.173-2.4c.226-.075.456.1.515.394l1.647,8.283A.578.578,0,0,1,77.225,94.4Z" transform="translate(-55.695 -42.014)" fill="#e6e6e6"/>
      <path id="路径_51747" data-name="路径 51747" d="M83.651,119.316l-7.173,2.4c-.226.075-.456-.1-.515-.394l-1.647-8.283a.578.578,0,0,1,.3-.668l7.173-2.4c.226-.075.456.1.515.394l1.647,8.283a.578.578,0,0,1-.3.668Z" transform="translate(-58.792 -50.183)" fill="#e6e6e6"/>
      <path id="路径_51748" data-name="路径 51748" d="M139.921,44.379H98.529c-2.922,0-5.29,3.076-5.293,6.867V114.3c0,3.791,2.371,6.863,5.293,6.867h41.392c2.922,0,5.29-3.076,5.293-6.867V51.246C145.211,47.456,142.843,44.384,139.921,44.379Z" transform="translate(-67.915 -28.685)" fill="#e6e6e6"/>
      <path id="路径_51749" data-name="路径 51749" d="M141.338,47.32H99.946c-2.081,0-3.767,2.191-3.77,4.89v63.052c0,2.7,1.689,4.887,3.77,4.89h41.392c2.081,0,3.767-2.191,3.769-4.89V52.211C145.105,49.511,143.419,47.323,141.338,47.32Z" transform="translate(-69.332 -29.65)" fill="#fff"/>
      <ellipse id="椭圆_918" data-name="椭圆 918" cx="9.663" cy="12.535" rx="9.663" ry="12.535" transform="translate(66.692 75.08)" fill="#5eb14e"/>
      <path id="路径_51750" data-name="路径 51750" d="M190.884,146.024h-3.361v-4.36a1.3,1.3,0,1,0-2.521,0v4.36h-3.361a1.691,1.691,0,0,0,0,3.27H185v4.36a1.3,1.3,0,1,0,2.521,0v-4.36h3.361a1.691,1.691,0,0,0,0-3.27Z" transform="translate(-109.908 -60.043)" fill="#fff"/>
      <path id="路径_51751" data-name="路径 51751" d="M151.03,97.751H130.1a1.183,1.183,0,0,1,0-2.287H151.03a1.183,1.183,0,0,1,0,2.287Z" transform="translate(-85.253 -45.433)" fill="#e6e6e6"/>
      <path id="路径_51752" data-name="路径 51752" d="M154.666,103.492H130.1a1.183,1.183,0,0,1,0-2.287h24.568a1.183,1.183,0,0,1,0,2.287Z" transform="translate(-85.253 -47.315)" fill="#e6e6e6"/>
      <path id="路径_51753" data-name="路径 51753" d="M151.03,123.483H130.1a1.182,1.182,0,0,1,0-2.287H151.03a1.182,1.182,0,0,1,0,2.287Z" transform="translate(-85.253 -53.869)" fill="#e6e6e6"/>
      <path id="路径_51754" data-name="路径 51754" d="M154.666,129.225H130.1a1.182,1.182,0,0,1,0-2.287h24.568a1.182,1.182,0,0,1,0,2.287Z" transform="translate(-85.253 -55.752)" fill="#e6e6e6"/>
      <path id="路径_51755" data-name="路径 51755" d="M114.586,102.508h-7.407a.5.5,0,0,1-.423-.548V93.405a.5.5,0,0,1,.423-.548h7.407a.5.5,0,0,1,.423.548v8.554a.5.5,0,0,1-.423.548Z" transform="translate(-74.43 -44.578)" fill="#e6e6e6"/>
      <path id="路径_51756" data-name="路径 51756" d="M114.586,128.24h-7.407a.5.5,0,0,1-.423-.548v-8.554a.5.5,0,0,1,.423-.548h7.407a.5.5,0,0,1,.423.548v8.554a.5.5,0,0,1-.423.548Z" transform="translate(-74.43 -53.015)" fill="#e6e6e6"/>
      <path id="路径_51757" data-name="路径 51757" d="M156.19,69.106H140.758a1.182,1.182,0,0,1,0-2.287H156.19a1.182,1.182,0,0,1,0,2.287Z" transform="translate(-90.39 -36.042)" fill="#ccc"/>
      <path id="路径_51758" data-name="路径 51758" d="M159.826,74.848H140.758a1.182,1.182,0,0,1,0-2.287h19.068a1.182,1.182,0,0,1,0,2.287Z" transform="translate(-90.39 -37.924)" fill="#ccc"/>
      <path id="路径_51759" data-name="路径 51759" d="M121.361,75.361H107.134a.5.5,0,0,1-.423-.548v-14.4a.5.5,0,0,1,.423-.548h14.227a.5.5,0,0,1,.423.548v14.4A.5.5,0,0,1,121.361,75.361Z" transform="translate(-74.408 -33.761)" fill="#5eb14e"/>
    </g>
  </g>
</svg>
